<?xml version="1.0" encoding="utf-8"?>
<!-- Generator: Adobe Illustrator 16.0.3, SVG Export Plug-In . SVG Version: 6.00 Build 0)  -->
<svg version="1.2" baseProfile="tiny" xmlns="http://www.w3.org/2000/svg" xmlns:xlink="http://www.w3.org/1999/xlink" x="0px"
	 y="0px" width="50px" height="50px" viewBox="0 0 50 50" xml:space="preserve">
<g id="Ebene_1" display="none">
	<path display="inline" fill="#3C3C3C" d="M0.706,24.02L19.338,4.854c0,0,2.218-2.341,2.218,0.198c0,2.54,0,8.691,0,8.691
		s1.492,0,3.786,0c6.564,0,18.483,0,23.34,0c0,0,1.318-0.345,1.318,1.658c0,2.002,0,18.267,0,19.703c0,1.438-1.1,1.395-1.1,1.395
		c-4.731,0-17.063,0-23.39,0c-2.069,0-3.412,0-3.412,0s0,4.931,0,8.029c0,3.087-2.301,0.758-2.301,0.758S2.375,28.42,0.559,26.608
		C-0.779,25.27,0.706,24.02,0.706,24.02z"/>
</g>
<g id="Ebene_2">
	<path fill="#3C3C3C" d="M40.873,12.179H9.119c-0.895,0-1.619,0.83-1.619,1.858v21.93c0,1.025,0.725,1.854,1.619,1.854h31.754
		c0.9,0,1.627-0.829,1.627-1.854v-21.93C42.5,13.008,41.773,12.179,40.873,12.179z M39.381,34.014c0,0.836-0.6,1.521-1.338,1.521
		h-1.142V22.357h-4.147v13.177h-2.4V19.593h-4.149v15.941h-2.392v-7.757h-4.149v7.757h-2.395V18.202h-4.149v17.332h-1.168
		c-0.734,0-1.33-0.685-1.33-1.521V15.99c0-0.842,0.595-1.524,1.33-1.524h26.092c0.738,0,1.338,0.682,1.338,1.524V34.014z"/>
</g>
</svg>
