<?xml version="1.0" encoding="utf-8"?>
<!-- Generator: Adobe Illustrator 16.0.3, SVG Export Plug-In . SVG Version: 6.00 Build 0)  -->
<svg version="1.2" baseProfile="tiny" xmlns="http://www.w3.org/2000/svg" xmlns:xlink="http://www.w3.org/1999/xlink" x="0px"
	 y="0px" width="50px" height="50px" viewBox="0 0 50 50" xml:space="preserve">
<g id="Ebene_1" display="none">
	<path display="inline" fill="#3C3C3C" d="M0.706,24.02L19.338,4.854c0,0,2.218-2.341,2.218,0.198c0,2.54,0,8.691,0,8.691
		s1.492,0,3.786,0c6.564,0,18.483,0,23.34,0c0,0,1.318-0.345,1.318,1.658c0,2.002,0,18.267,0,19.703c0,1.438-1.1,1.395-1.1,1.395
		c-4.731,0-17.063,0-23.39,0c-2.069,0-3.412,0-3.412,0s0,4.931,0,8.029c0,3.087-2.301,0.758-2.301,0.758S2.375,28.42,0.559,26.608
		C-0.779,25.27,0.706,24.02,0.706,24.02z"/>
</g>
<g id="Ebene_2">
	<path fill="#3C3C3C" d="M39.801,33.93v-4.275c0-2.582-1.711-6.423-6.424-6.423h-3.723c-2.629,0-2.873-1.29-2.886-1.955v-5.205
		c1.588-0.686,2.699-2.264,2.699-4.104c0-2.467-2-4.468-4.468-4.468s-4.468,2.001-4.468,4.468c0,1.839,1.111,3.417,2.699,4.104
		v5.205c0,0.482-0.139,1.955-2.886,1.955h-3.723c-4.713,0-6.423,3.841-6.423,6.423v4.275c-1.587,0.686-2.7,2.264-2.7,4.103
		c0,2.468,2.001,4.468,4.468,4.468c2.468,0,4.468-2,4.468-4.468c0-1.839-1.112-3.417-2.7-4.103v-4.275
		c0-0.482,0.14-2.886,2.886-2.886h3.723c1.131,0,2.083-0.171,2.886-0.46v7.621c-1.588,0.686-2.699,2.264-2.699,4.103
		c0,2.468,2,4.468,4.468,4.468s4.468-2,4.468-4.468c0-1.839-1.111-3.417-2.699-4.103v-7.621c0.802,0.289,1.755,0.46,2.886,0.46
		h3.723c2.629,0,2.875,2.221,2.887,2.886v4.275c-1.588,0.686-2.699,2.264-2.699,4.103c0,2.468,2,4.468,4.468,4.468
		c2.467,0,4.468-2,4.468-4.468C42.5,36.193,41.388,34.615,39.801,33.93z M14.545,38.032c0,1.423-1.154,2.577-2.577,2.577
		c-1.424,0-2.578-1.154-2.578-2.577c0-1.424,1.154-2.578,2.578-2.578C13.391,35.454,14.545,36.608,14.545,38.032z M22.422,11.968
		c0-1.423,1.154-2.577,2.578-2.577c1.424,0,2.577,1.154,2.577,2.577c0,1.424-1.153,2.578-2.577,2.578
		C23.577,14.546,22.422,13.392,22.422,11.968z M27.577,38.032c0,1.423-1.153,2.577-2.577,2.577c-1.423,0-2.578-1.154-2.578-2.577
		c0-1.424,1.154-2.578,2.578-2.578C26.424,35.454,27.577,36.608,27.577,38.032z M38.032,40.609c-1.423,0-2.578-1.154-2.578-2.577
		c0-1.424,1.155-2.578,2.578-2.578s2.577,1.154,2.577,2.578C40.609,39.455,39.455,40.609,38.032,40.609z"/>
</g>
</svg>
